 http://img851.imageshack.us/img851/9309/26894895693jumpingthebr.jpg

Country.......: USA
Genre.........: Comedy
Date release..: 06.05.2011 [World]
Director......: Salim Akil
Writers.......: Elizabeth Hunter, Arlene Gibbs
Duration......: 106 min.
More..........: http://www.imdb.com/title/tt1640484
Trailer.......: http://www.imdb.com/video/imdb/vi2389350681
Trailer.......:

Pilot :
Two very different families converge on Martha's Vineyard one weekend for a wedding.

Cats :
Angela Bassett   	 ...  	Mrs. Watson
Paula Patton 	... 	Sabrina Watson
Laz Alonso 	... 	Jason Taylor
Loretta Devine 	... 	Mrs. Taylor
Meagan Good 	... 	Blythe
Tasha Smith 	... 	Shonda
Julie Bowen 	... 	Amy
DeRay Davis 	... 	Malcolm
Valarie Pettiford 	... 	Aunt Geneva
Mike Epps 	... 	Willie Earl
Pooch Hall 	... 	Ricky
Romeo 	Romeo 	... 	Sebastian (as Romeo Miller)
Brian Stokes Mitchell 	... 	Mr. Watson
Gary Dourdan 	... 	Chef
T.D. Jakes 	... 	Reverend James 

Data Technical :
!!! SAMPLE !!!
Audio.....: English
Subtitles.: None
Format                           : AVI
Format/Info                      : Audio Video Interleave
Format profile                   : OpenDML
File size                        : 1.10 GiB
Duration                         : 1h 45mn
Overall bit rate                 : 1 491 Kbps
Writing library                  : MPlayer
Video
ID                               : 0
Format                           : MPEG-4 Visual
Format profile                   : Advanced Simple@L5
Format settings, BVOP            : Yes
Format settings, QPel            : No
Format settings, GMC             : No warppoints
Format settings, Matrix          : Custom
Codec ID                         : XVID
Codec ID/Hint                    : XviD
Duration                         : 5mn 41s
Bit rate                         : 1 342 Kbps
Width                            : 720 pixels
Height                           : 304 pixels
Display aspect ratio             : 2.35:1
Frame rate                       : 23.976 fps
Color space                      : YUV
Chroma subsampling               : 4:2:0
Bit depth                        : 8 bits
Scan type                        : Progressive
Bits/(Pixel*Frame)               : 0.256
Stream size                      : 54.6 MiB (5%)
Writing library                  : XviD 1.2.1 (UTC 2008-12-04)
Audio
ID                               : 1
Format                           : MPEG Audio
Codec ID                         : 55
Codec ID/Hint                    : MP3
Duration                         : 1h 45mn
Bit rate                         : 128 Kbps
Channel(s)                       : 2 channels
Sampling rate                    : 44.1 KHz
Stream size                      : 96.6 MiB (9%)
Alignment                        : Aligned on interleaves

Screen : 
http://img59.imageshack.us/img59/7130/jumpingthebroom2011s1.jpg 
http://img8.imageshack.us/img8/6043/jumpingthebroom2011s2.jpg 
http://img812.imageshack.us/img812/374/jumpingthebroom2011s3.jpg 
http://img696.imageshack.us/img696/2451/jumpingthebroom2011s4.jpg 
http://img593.imageshack.us/img593/1328/jumpingthebroom2011s5.jpg